{
    "asset" : {
        "generator" : "Khronos glTF Blender I/O v3.2.43",
        "version" : "2.0"
    },
    "scene" : 0,
    "scenes" : [
        {
            "name" : "Scene",
            "nodes" : [
                0,
                1,
                2
            ]
        }
    ],
    "nodes" : [
        {
            "mesh" : 0,
            "name" : "Text",
            "rotation" : [
                0.7059118151664734,
                0,
                0,
                0.7082996964454651
            ],
            "translation" : [
                -0.07317498326301575,
                0.006310430355370045,
                -0.09547127038240433
            ]
        },
        {
            "mesh" : 1,
            "name" : "Text.001",
            "rotation" : [
                0.6915388703346252,
                0,
                0,
                0.7223392724990845
            ],
            "scale" : [
                0.27045637369155884,
                0.27045637369155884,
                0.27045637369155884
            ],
            "translation" : [
                0.4632483720779419,
                0.4701109528541565,
                -0.08530662208795547
            ]
        },
        {
            "mesh" : 2,
            "name" : "Plane",
            "scale" : [
                -3.039550304412842,
                -3.039550304412842,
                -3.039550304412842
            ],
            "translation" : [
                0.8177492618560791,
                0.005345863290131092,
                0.23228676617145538
            ]
        }
    ],
    "materials" : [
        {
            "doubleSided" : true,
            "name" : "test",
            "pbrMetallicRoughness" : {
                "metallicFactor" : 0,
                "roughnessFactor" : 0.5
            }
        },
        {
            "doubleSided" : true,
            "name" : "Material.001",
            "pbrMetallicRoughness" : {
                "metallicFactor" : 0,
                "roughnessFactor" : 0.5
            }
        },
        {
            "doubleSided" : true,
            "name" : "grass",
            "pbrMetallicRoughness" : {
                "baseColorFactor" : [
                    0.028281502425670624,
                    0.44797849655151367,
                    0.019114112481474876,
                    1
                ],
                "metallicFactor" : 0,
                "roughnessFactor" : 0.5
            }
        }
    ],
    "meshes" : [
        {
            "name" : "Text",
            "primitives" : [
                {
                    "attributes" : {
                        "POSITION" : 0,
                        "NORMAL" : 1,
                        "TEXCOORD_0" : 2
                    },
                    "indices" : 3,
                    "material" : 0
                }
            ]
        },
        {
            "name" : "Text.001",
            "primitives" : [
                {
                    "attributes" : {
                        "POSITION" : 4,
                        "NORMAL" : 5,
                        "TEXCOORD_0" : 6
                    },
                    "indices" : 7,
                    "material" : 1
                }
            ]
        },
        {
            "name" : "Plane",
            "primitives" : [
                {
                    "attributes" : {
                        "POSITION" : 8,
                        "NORMAL" : 9,
                        "TEXCOORD_0" : 10
                    },
                    "indices" : 11,
                    "material" : 2
                }
            ]
        }
    ],
    "accessors" : [
        {
            "bufferView" : 0,
            "componentType" : 5126,
            "count" : 675,
            "max" : [
                2.699000120162964,
                0,
                0.009000000543892384
            ],
            "min" : [
                0.07500000298023224,
                0,
                -0.6820000410079956
            ],
            "type" : "VEC3"
        },
        {
            "bufferView" : 1,
            "componentType" : 5126,
            "count" : 675,
            "type" : "VEC3"
        },
        {
            "bufferView" : 2,
            "componentType" : 5126,
            "count" : 675,
            "type" : "VEC2"
        },
        {
            "bufferView" : 3,
            "componentType" : 5123,
            "count" : 1500,
            "type" : "SCALAR"
        },
        {
            "bufferView" : 4,
            "componentType" : 5126,
            "count" : 396,
            "max" : [
                3.2710001468658447,
                0,
                0.009000000543892384
            ],
            "min" : [
                0,
                0,
                -0.6860000491142273
            ],
            "type" : "VEC3"
        },
        {
            "bufferView" : 5,
            "componentType" : 5126,
            "count" : 396,
            "type" : "VEC3"
        },
        {
            "bufferView" : 6,
            "componentType" : 5126,
            "count" : 396,
            "type" : "VEC2"
        },
        {
            "bufferView" : 7,
            "componentType" : 5123,
            "count" : 921,
            "type" : "SCALAR"
        },
        {
            "bufferView" : 8,
            "componentType" : 5126,
            "count" : 4,
            "max" : [
                1,
                0,
                1
            ],
            "min" : [
                -1,
                0,
                -1
            ],
            "type" : "VEC3"
        },
        {
            "bufferView" : 9,
            "componentType" : 5126,
            "count" : 4,
            "type" : "VEC3"
        },
        {
            "bufferView" : 10,
            "componentType" : 5126,
            "count" : 4,
            "type" : "VEC2"
        },
        {
            "bufferView" : 11,
            "componentType" : 5123,
            "count" : 6,
            "type" : "SCALAR"
        }
    ],
    "bufferViews" : [
        {
            "buffer" : 0,
            "byteLength" : 8100,
            "byteOffset" : 0
        },
        {
            "buffer" : 0,
            "byteLength" : 8100,
            "byteOffset" : 8100
        },
        {
            "buffer" : 0,
            "byteLength" : 5400,
            "byteOffset" : 16200
        },
        {
            "buffer" : 0,
            "byteLength" : 3000,
            "byteOffset" : 21600
        },
        {
            "buffer" : 0,
            "byteLength" : 4752,
            "byteOffset" : 24600
        },
        {
            "buffer" : 0,
            "byteLength" : 4752,
            "byteOffset" : 29352
        },
        {
            "buffer" : 0,
            "byteLength" : 3168,
            "byteOffset" : 34104
        },
        {
            "buffer" : 0,
            "byteLength" : 1842,
            "byteOffset" : 37272
        },
        {
            "buffer" : 0,
            "byteLength" : 48,
            "byteOffset" : 39116
        },
        {
            "buffer" : 0,
            "byteLength" : 48,
            "byteOffset" : 39164
        },
        {
            "buffer" : 0,
            "byteLength" : 32,
            "byteOffset" : 39212
        },
        {
            "buffer" : 0,
            "byteLength" : 12,
            "byteOffset" : 39244
        }
    ],
    "buffers" : [
        {
            "byteLength" : 39256,
            "uri" : "data:application/octet-stream;base64,"
        }
    ]
}
